<?xml version="1.0" encoding="utf-8"?>
<!-- Generator: Adobe Illustrator 16.0.3, SVG Export Plug-In . SVG Version: 6.00 Build 0)  -->
<!DOCTYPE svg PUBLIC "-//W3C//DTD SVG 1.1//EN" "http://www.w3.org/Graphics/SVG/1.1/DTD/svg11.dtd">
<svg version="1.1" id="Layer_1" xmlns="http://www.w3.org/2000/svg" xmlns:xlink="http://www.w3.org/1999/xlink" x="0px" y="0px"
	 width="1200px" height="1200px" viewBox="0 0 1200 1200" enable-background="new 0 0 1200 1200" xml:space="preserve">
<g>
	<g>
		<g>
			<g>
				<g>
					<path d="M814.104,674.748H385.896c-3.827,0-7.275-2.305-8.74-5.839c-1.465-3.539-0.655-7.604,2.051-10.312l214.104-214.106
						c3.697-3.696,9.684-3.696,13.381,0l214.104,214.106c2.707,2.707,3.516,6.772,2.052,10.312
						C821.38,672.443,817.931,674.748,814.104,674.748z M408.736,655.826h382.53L600,464.56L408.736,655.826z"/>
				</g>
				<g>
					<path d="M814.104,544.174H385.896c-3.827,0-7.275-2.305-8.74-5.839c-1.465-3.539-0.655-7.604,2.051-10.311l214.104-214.107
						c3.549-3.548,9.831-3.548,13.381,0l214.104,214.107c2.707,2.706,3.516,6.771,2.052,10.311
						C821.38,541.869,817.931,544.174,814.104,544.174z M408.738,525.252h382.524L600,333.984L408.738,525.252z"/>
				</g>
				<g>
					<path d="M814.104,413.599H385.896c-3.827,0-7.275-2.304-8.74-5.839c-1.465-3.539-0.655-7.604,2.051-10.311l214.104-214.103
						c3.697-3.696,9.684-3.696,13.381,0l214.104,214.103c2.707,2.707,3.516,6.772,2.052,10.311
						C821.38,411.294,817.931,413.599,814.104,413.599z M408.738,394.677h382.524L600,203.414L408.738,394.677z"/>
				</g>
				<g>
					<path d="M814.104,283.024H385.896c-3.827,0-7.275-2.304-8.74-5.839c-1.465-3.539-0.655-7.604,2.051-10.311L593.311,52.772
						c3.697-3.696,9.684-3.696,13.381,0l214.104,214.103c2.707,2.707,3.516,6.772,2.052,10.311
						C821.38,280.719,817.931,283.024,814.104,283.024z M408.738,264.104h382.524L600,72.84L408.738,264.104z"/>
				</g>
			</g>
			<g>
				<g>
					<path d="M600,758.28c-2.509,0-4.914-0.998-6.689-2.771L379.206,541.401c-2.706-2.706-3.516-6.771-2.051-10.311
						c1.465-3.534,4.913-5.839,8.74-5.839h428.208c3.827,0,7.276,2.305,8.741,5.839c1.464,3.539,0.655,7.604-2.052,10.311
						L606.69,755.509C604.915,757.282,602.508,758.28,600,758.28z M408.738,544.174L600,735.44l191.262-191.268L408.738,544.174
						L408.738,544.174z"/>
				</g>
				<g>
					<path d="M600,888.851c-2.422,0-4.841-0.924-6.689-2.772L379.206,671.977c-2.706-2.707-3.516-6.772-2.051-10.312
						c1.465-3.534,4.913-5.839,8.74-5.839h428.208c3.827,0,7.276,2.305,8.741,5.839c1.464,3.539,0.655,7.604-2.052,10.312
						L606.69,886.078C604.841,887.927,602.421,888.851,600,888.851z M408.738,674.748L600,866.011l191.262-191.263H408.738z"/>
				</g>
				<g>
					<path d="M600,1019.424c-2.422,0-4.841-0.923-6.689-2.771L379.206,802.547c-2.706-2.707-3.516-6.772-2.051-10.312
						c1.465-3.533,4.913-5.839,8.74-5.839h428.208c3.827,0,7.276,2.306,8.741,5.839c1.464,3.54,0.655,7.605-2.052,10.312
						L606.69,1016.654C604.841,1018.501,602.421,1019.424,600,1019.424z M408.736,805.318L600,996.586l191.264-191.268H408.736z"/>
				</g>
				<g>
					<path d="M600,1150c-2.422,0-4.841-0.926-6.689-2.771L379.206,933.12c-2.706-2.707-3.516-6.771-2.051-10.312
						c1.465-3.533,4.913-5.839,8.74-5.839h428.208c3.827,0,7.276,2.306,8.741,5.839c1.464,3.54,0.655,7.604-2.052,10.312
						L606.69,1147.229C604.841,1149.074,602.421,1150,600,1150z M408.736,935.893L600,1127.16l191.264-191.268H408.736
						L408.736,935.893z"/>
				</g>
			</g>
		</g>
		<g>
			<g>
				<g>
					<path d="M534.711,823.565c-1.221,0-2.449-0.236-3.62-0.721c-3.534-1.465-5.839-4.916-5.839-8.741V385.896
						c0-3.825,2.305-7.276,5.839-8.741c3.531-1.469,7.601-0.661,10.312,2.051l214.104,214.103c3.695,3.695,3.695,9.684,0,13.379
						L541.403,820.793C539.593,822.604,537.174,823.565,534.711,823.565z M544.174,408.735v382.532l191.263-191.269L544.174,408.735
						z"/>
				</g>
				<g>
					<path d="M665.285,823.565c-1.221,0-2.449-0.236-3.621-0.721c-3.533-1.465-5.838-4.916-5.838-8.741V385.896
						c0-3.825,2.305-7.276,5.838-8.741c3.53-1.469,7.607-0.661,10.312,2.051L886.08,593.309c3.697,3.695,3.697,9.684,0,13.379
						L671.977,820.793C670.167,822.604,667.748,823.565,665.285,823.565z M674.748,408.735v382.532L866.01,599.998L674.748,408.735z
						"/>
				</g>
				<g>
					<path d="M795.857,823.565c-1.22,0-2.448-0.236-3.616-0.721c-3.537-1.465-5.843-4.916-5.843-8.741V385.896
						c0-3.825,2.306-7.276,5.843-8.741c3.534-1.464,7.603-0.656,10.308,2.051l214.108,214.103c1.773,1.774,2.771,4.182,2.771,6.689
						s-0.998,4.914-2.771,6.689L802.548,820.793C800.74,822.604,798.32,823.565,795.857,823.565z M805.321,408.735v382.532
						l191.266-191.269L805.321,408.735z"/>
				</g>
				<g>
					<path d="M926.433,823.565c-1.221,0-2.449-0.236-3.618-0.721c-3.536-1.465-5.841-4.916-5.841-8.741V385.896
						c0-3.825,2.303-7.276,5.841-8.741c3.529-1.464,7.606-0.656,10.31,2.051l214.104,214.103c3.697,3.695,3.697,9.684,0,13.379
						L933.122,820.793C931.315,822.604,928.894,823.565,926.433,823.565z M935.894,408.735v382.532l191.265-191.269L935.894,408.735
						z"/>
				</g>
			</g>
			<g>
				<g>
					<path d="M665.291,823.565c-2.463,0-4.885-0.961-6.693-2.772L444.493,606.688c-3.697-3.697-3.697-9.684,0-13.381
						l214.104-214.102c2.703-2.712,6.771-3.52,10.312-2.051c3.533,1.464,5.839,4.916,5.839,8.741v428.209
						c0,3.825-2.306,7.276-5.839,8.739C667.738,823.329,666.51,823.565,665.291,823.565z M464.564,599.998l191.263,191.269V408.735
						L464.564,599.998z"/>
				</g>
				<g>
					<path d="M534.715,823.565c-2.461,0-4.882-0.961-6.691-2.772L313.92,606.688c-1.774-1.775-2.772-4.182-2.772-6.689
						s0.998-4.915,2.772-6.689l214.104-214.103c2.705-2.712,6.78-3.52,10.31-2.051c3.535,1.463,5.843,4.916,5.843,8.741v428.208
						c0,3.825-2.306,7.276-5.843,8.741C537.164,823.329,535.932,823.565,534.715,823.565z M333.99,599.998l191.263,191.269V408.735
						L333.99,599.998z"/>
				</g>
				<g>
					<path d="M404.143,823.565c-2.461,0-4.882-0.961-6.691-2.772L183.346,606.688c-3.695-3.697-3.695-9.684,0-13.381
						l214.105-214.102c2.703-2.712,6.778-3.52,10.31-2.051c3.536,1.464,5.841,4.916,5.841,8.741v428.209
						c0,3.825-2.305,7.276-5.841,8.739C406.592,823.329,405.362,823.565,404.143,823.565z M203.416,599.998L394.68,791.267V408.735
						L203.416,599.998z"/>
				</g>
				<g>
					<path d="M273.57,823.565c-2.463,0-4.884-0.961-6.693-2.772L52.772,606.688c-1.774-1.775-2.772-4.182-2.772-6.689
						s0.998-4.915,2.772-6.689l214.106-214.103c2.703-2.712,6.778-3.52,10.31-2.051c3.536,1.463,5.841,4.916,5.841,8.741v428.208
						c0,3.825-2.305,7.276-5.841,8.741C276.018,823.329,274.786,823.565,273.57,823.565z M72.842,599.998l191.264,191.269V408.735
						L72.842,599.998z"/>
				</g>
			</g>
		</g>
		<g>
			<g>
				<g>
					<path d="M302.016,379.108c-2.422,0-4.843-0.923-6.689-2.771l-56.243-56.239c-1.774-1.775-2.772-4.182-2.772-6.689
						s0.998-4.916,2.772-6.689l56.241-56.244c3.549-3.547,9.831-3.552,13.381,0l56.24,56.244c3.697,3.696,3.697,9.684,0,13.379
						l-56.24,56.24C306.857,378.185,304.435,379.108,302.016,379.108z M259.153,313.408l42.863,42.86l42.86-42.86l-42.86-42.867
						L259.153,313.408z"/>
				</g>
				<g>
					<path d="M897.987,379.108c-2.422,0-4.845-0.923-6.689-2.771l-56.243-56.239c-1.773-1.775-2.771-4.182-2.771-6.689
						s0.998-4.916,2.771-6.689l56.241-56.244c3.552-3.547,9.831-3.547,13.383,0l56.239,56.244c1.775,1.774,2.773,4.182,2.773,6.689
						s-0.998,4.915-2.773,6.689l-56.241,56.239C902.829,378.185,900.407,379.108,897.987,379.108z M855.126,313.408l42.86,42.86
						l42.86-42.86l-42.86-42.862L855.126,313.408z"/>
				</g>
			</g>
			<g>
				<g>
					<path d="M302.016,952.293c-2.422,0-4.843-0.924-6.689-2.772l-56.243-56.241c-1.774-1.773-2.772-4.179-2.772-6.688
						c0-2.508,0.996-4.915,2.772-6.689l56.243-56.244c3.69-3.695,9.682-3.695,13.379,0l56.243,56.244
						c3.692,3.695,3.692,9.682-0.003,13.379l-56.24,56.239C306.857,951.369,304.435,952.293,302.016,952.293z M259.153,886.592
						l42.863,42.861l42.862-42.861l-42.862-42.866L259.153,886.592z"/>
				</g>
				<g>
					<path d="M897.987,952.293c-2.422,0-4.845-0.924-6.689-2.772l-56.243-56.241c-1.773-1.773-2.771-4.179-2.771-6.688
						c0-2.508,0.996-4.915,2.771-6.689l56.243-56.244c3.691-3.695,9.688-3.695,13.379,0l56.241,56.244
						c1.777,1.774,2.773,4.182,2.773,6.689c0,2.509-0.998,4.914-2.773,6.688l-56.241,56.241
						C902.829,951.369,900.407,952.293,897.987,952.293z M855.126,886.592l42.86,42.861l42.86-42.861l-42.86-42.866L855.126,886.592
						z"/>
				</g>
			</g>
		</g>
	</g>
</g>
</svg>
